<svg xmlns="http://www.w3.org/2000/svg" viewBox="319.987 31.169 31.25 30.139"><defs><style>.a{fill:#e1f1fb;}.b{fill:#bde2ef;}.c{fill:#fcb75b;}.d{fill:#ed9a37;}.e{fill:#e28a2b;}.f{fill:#fed159;}</style></defs><g transform="translate(319.987 22.061)"><g transform="translate(1.003 37.362)"><path class="a" d="M310.132,472.023V473.5a.405.405,0,0,0,.405.405h10.507a.405.405,0,0,0,.405-.405v-1.479Z" transform="translate(-292.206 -472.023)"/><path class="a" d="M27.759,472.023V473.5a.405.405,0,0,1-.405.405H16.846a.405.405,0,0,1-.405-.405v-1.479Z" transform="translate(-16.441 -472.023)"/></g><g transform="translate(1.004 37.362)"><path class="b" d="M311.39,473.5v-1.479h-1.258V473.5a.405.405,0,0,0,.405.405H311.8A.405.405,0,0,1,311.39,473.5Z" transform="translate(-292.206 -472.023)"/><path class="b" d="M17.7,473.5v-1.479H16.442V473.5a.405.405,0,0,0,.405.405h1.258A.405.405,0,0,1,17.7,473.5Z" transform="translate(-16.442 -472.023)"/></g><rect class="c" width="7.437" height="9.142" transform="translate(11.907 19.551)"/><g transform="translate(11.907 19.551)"><rect class="d" width="7.437" height="4.571" transform="translate(0 4.571)"/><rect class="d" width="1.719" height="9.142"/></g><rect class="e" width="1.719" height="4.571" transform="translate(11.907 24.122)"/><g transform="translate(5.753 9.58)"><rect class="f" width="5.002" height="7.949" transform="translate(14.742 0)"/><rect class="f" width="5.002" height="7.949" transform="translate(0 0)"/></g><g transform="translate(5.753 9.58)"><rect class="c" width="1.258" height="7.949" transform="translate(0 0)"/><rect class="c" width="5.002" height="1.852" transform="translate(14.742 0)"/><rect class="c" width="1.258" height="7.949" transform="translate(14.742 0)"/></g><rect class="d" width="1.258" height="1.852" transform="translate(20.495 9.58)"/><path class="c" d="M318.061,140.836a.612.612,0,0,0-.607-.529h-7.488a.612.612,0,0,0-.612.612v15.826h10.875Z" transform="translate(-290.472 -123.191)"/><path class="d" d="M311.224,140.307h-1.258a.612.612,0,0,0-.612.613v15.826h1.258V140.92A.612.612,0,0,1,311.224,140.307Z" transform="translate(-290.472 -123.191)"/><path class="c" d="M26.642,140.836a.612.612,0,0,1,.607-.529h7.488a.612.612,0,0,1,.612.612v15.826H24.474Z" transform="translate(-22.98 -123.191)"/><path class="d" d="M28.507,140.307H27.25a.612.612,0,0,0-.607.529l-2.168,15.909h1.258L27.9,140.836A.612.612,0,0,1,28.507,140.307Z" transform="translate(-22.981 -123.191)"/><rect class="c" width="5.002" height="1.852" transform="translate(5.753 9.58)"/><rect class="d" width="1.258" height="1.852" transform="translate(5.753 9.58)"/><g transform="translate(4.6 9.108)"><path class="c" d="M323.758,10.051h-6.364a.472.472,0,0,1,0-.943h6.364a.472.472,0,0,1,0,.943Z" transform="translate(-302.179 -9.108)"/><path class="c" d="M82.2,10.051H75.835a.472.472,0,1,1,0-.943H82.2a.472.472,0,1,1,0,.943Z" transform="translate(-75.363 -9.108)"/></g><g transform="translate(0 33.428)"><path class="f" d="M306.523,407.565H294.184a.493.493,0,0,0-.493.493v3.137a.493.493,0,0,0,.493.493h12.339a.493.493,0,0,0,.493-.493v-3.137A.493.493,0,0,0,306.523,407.565Z" transform="translate(-275.765 -407.565)"/><path class="f" d="M.493,407.565H12.832a.493.493,0,0,1,.493.493v3.137a.493.493,0,0,1-.493.493H.493A.493.493,0,0,1,0,411.195v-3.137A.493.493,0,0,1,.493,407.565Z" transform="translate(0 -407.565)"/></g><g transform="translate(0 35.801)"><path class="c" d="M306.523,446.926H294.184a.493.493,0,0,1-.493-.493v1.258a.493.493,0,0,0,.493.493h12.339a.493.493,0,0,0,.493-.493v-1.258A.493.493,0,0,1,306.523,446.926Z" transform="translate(-275.765 -446.433)"/><path class="c" d="M12.832,446.926H.493A.493.493,0,0,1,0,446.433v1.258a.493.493,0,0,0,.493.493H12.832a.493.493,0,0,0,.493-.493v-1.258A.493.493,0,0,1,12.832,446.926Z" transform="translate(0 -446.433)"/></g></g></svg>