<svg xmlns="http://www.w3.org/2000/svg" viewBox="419 3251 16.81 16.81"><defs><style>.a{fill:#e22;}</style></defs><g transform="translate(435.81 3267.81) rotate(180)"><path class="a" d="M16.306,11.428a2.052,2.052,0,0,0,.5-1.4,2.11,2.11,0,0,0-.47-1.209,1.841,1.841,0,0,0-.459-2.162,4.079,4.079,0,0,0-2.9-.675,11.656,11.656,0,0,0-1.779.221h0c-.181.032-.372.07-.568.112a5.982,5.982,0,0,1,.452-2.042c.506-1.5.477-2.644-.094-3.41A2.328,2.328,0,0,0,9.142,0a.919.919,0,0,0-.7.309,2.309,2.309,0,0,0-.3,1.677c-.477,1.244-1.815,4.3-2.947,5.143a.384.384,0,0,0-.058.049,3.769,3.769,0,0,0-.709,1.034,1.526,1.526,0,0,0-.716-.176H1.5A1.485,1.485,0,0,0,0,9.5v5.712a1.485,1.485,0,0,0,1.5,1.462H3.71a1.531,1.531,0,0,0,.868-.267l.85.1a37.441,37.441,0,0,0,4.821.257c.43.032.835.049,1.211.049a8.34,8.34,0,0,0,1.682-.148,3.154,3.154,0,0,0,2.246-1.357,2.1,2.1,0,0,0,.246-1.346,2.212,2.212,0,0,0,.821-1.824A2.317,2.317,0,0,0,16.306,11.428Zm-14.8,4.3a.521.521,0,0,1-.528-.513V9.495A.521.521,0,0,1,1.5,8.982H3.71a.521.521,0,0,1,.528.513v5.712a.521.521,0,0,1-.528.513H1.5ZM15.38,11.017a.462.462,0,0,0-.065.573,1.433,1.433,0,0,1,.166.587,1.4,1.4,0,0,1-.68,1.216.471.471,0,0,0-.166.541,1.21,1.21,0,0,1-.1.907,2.273,2.273,0,0,1-1.6.893,9.8,9.8,0,0,1-2.636.077h-.051a36.706,36.706,0,0,1-4.7-.25h0l-.365-.042a1.449,1.449,0,0,0,.033-.309V9.495a1.449,1.449,0,0,0-.069-.436,2.911,2.911,0,0,1,.673-1.206C7.442,6.6,9.03,2.38,9.1,2.2a.433.433,0,0,0,.022-.236A2.138,2.138,0,0,1,9.167.942a1.314,1.314,0,0,1,1.02.475,2.919,2.919,0,0,1-.043,2.556C9.536,5.762,9.486,6.7,9.966,7.119a.806.806,0,0,0,.788.137c.221-.049.43-.091.629-.123l.047-.011c1.11-.236,3.1-.38,3.79.232a.99.99,0,0,1,.123,1.283.461.461,0,0,0,.087.612,1.32,1.32,0,0,1,.4.819A1.29,1.29,0,0,1,15.38,11.017Z" transform="translate(0 0)"/></g></svg>