<svg xmlns="http://www.w3.org/2000/svg" viewBox="1230.975 179 26.857 26.848"><defs><style>.a{fill:#333;}</style></defs><g transform="translate(1229.975 178.907)"><g transform="translate(1 0.093)"><path class="a" d="M27.2,23.118l-6.451-6.45a10.758,10.758,0,1,0-3.166,3.166l6.45,6.451A2.239,2.239,0,1,0,27.2,23.118ZM11.743,20.673a9.847,9.847,0,1,1,9.847-9.847A9.847,9.847,0,0,1,11.743,20.673Zm14.825,4.978a1.379,1.379,0,0,1-1.9,0l-6.344-6.344a10.827,10.827,0,0,0,1.9-1.9l6.344,6.344A1.346,1.346,0,0,1,26.569,25.651Z" transform="translate(-1 -0.093)"/><path class="a" d="M52.413,39.375a8.952,8.952,0,1,0-14.477,9.81h0a.422.422,0,0,0,.045.052c.008.006.017.007.026.013a8.916,8.916,0,0,0,4.65,2.285.447.447,0,0,0,.148.029l.02,0a8.055,8.055,0,0,0,2.547,0l.02,0a.446.446,0,0,0,.148-.029,8.917,8.917,0,0,0,4.647-2.282c.009-.006.02-.008.028-.015a.426.426,0,0,0,.045-.052A8.952,8.952,0,0,0,52.413,39.375ZM42.555,50.614a8.026,8.026,0,0,1-3.644-1.75c.036-.027.07-.058.108-.08l1.725-.973,1.106.87a1.364,1.364,0,0,0,.852.3c.036,0,.071-.007.107-.01l.325.487Zm.471-2.657a.48.48,0,0,1-.62.022l-.819-.644.792-.447,1.015.718Zm3.914-7.108.064.132a.6.6,0,0,1,.067.274v1.011a.639.639,0,0,1-.16.415l-.027.025a1.5,1.5,0,0,0-.414.784,7.132,7.132,0,0,1-.885,1.444.726.726,0,0,0-.144.429v.695l-1.343.95-1.343-.95v-.695a.726.726,0,0,0-.143-.428,7.165,7.165,0,0,1-.885-1.442,1.508,1.508,0,0,0-.414-.787l-.027-.024a.64.64,0,0,1-.16-.415V41.255a.616.616,0,0,1,.072-.285l.057-.12a1.533,1.533,0,0,0,.157-.674V38.721a1.832,1.832,0,0,1,1.831-1.831h1.71a1.832,1.832,0,0,1,1.831,1.831v1.455A1.533,1.533,0,0,0,46.941,40.849ZM44.554,48.6l-.247.371h-.416l-.247-.371.455-.431ZM44.1,50.766c-.2,0-.4-.016-.6-.031h0l.432-.865h.342l.432.865C44.5,50.75,44.3,50.766,44.1,50.766Zm1.719-3.877.792.447-.821.646a.479.479,0,0,1-.617-.024l-.369-.35Zm-.176,3.725-.579-1.159.325-.487c.036,0,.072.01.108.01a1.36,1.36,0,0,0,.849-.3l1.109-.872,1.713.966c.043.026.079.058.119.088A8.027,8.027,0,0,1,45.642,50.614Zm4.3-2.373A2.519,2.519,0,0,0,49.618,48l-3.281-1.85v-.731a5.413,5.413,0,0,0,1.012-1.761.623.623,0,0,1,.142-.3.46.46,0,0,0,.034-.031,1.545,1.545,0,0,0,.441-1.069V41.255a1.486,1.486,0,0,0-.161-.673l-.059-.122a.644.644,0,0,1-.067-.284V38.721A2.729,2.729,0,0,0,44.954,36h-1.71a2.729,2.729,0,0,0-2.726,2.726v1.455a.646.646,0,0,1-.068.285l-.052.11a1.5,1.5,0,0,0-.166.684v1.011a1.545,1.545,0,0,0,.441,1.069.4.4,0,0,0,.034.031.629.629,0,0,1,.143.3,5.424,5.424,0,0,0,1.012,1.758v.73l-3.293,1.857a2.448,2.448,0,0,0-.312.23,8.055,8.055,0,1,1,11.684,0Z" transform="translate(-33.356 -31.976)"/><path class="a" d="M462.429,460.921a.443.443,0,0,0-.481.724.472.472,0,0,0,.318.13.443.443,0,0,0,.163-.854Z" transform="translate(-437.647 -436.718)"/></g></g></svg>