<svg xmlns="http://www.w3.org/2000/svg" viewBox="387 3251 16.81 16.81"><defs><style>.a{fill:#298800;}</style></defs><g transform="translate(403.81 3267.81) rotate(180)"><path class="a" d="M.5,5.382a2.052,2.052,0,0,0-.5,1.4,2.11,2.11,0,0,0,.47,1.209,1.841,1.841,0,0,0,.459,2.162,4.079,4.079,0,0,0,2.9.675A11.656,11.656,0,0,0,5.614,10.6h0c.181-.032.372-.07.568-.112a5.982,5.982,0,0,1-.452,2.042c-.506,1.5-.477,2.644.094,3.41a2.328,2.328,0,0,0,1.841.868.919.919,0,0,0,.7-.309,2.309,2.309,0,0,0,.3-1.677c.477-1.244,1.815-4.3,2.947-5.143a.384.384,0,0,0,.058-.049A3.769,3.769,0,0,0,12.384,8.6a1.526,1.526,0,0,0,.716.176h2.206a1.485,1.485,0,0,0,1.5-1.462V1.6a1.485,1.485,0,0,0-1.5-1.462H13.1A1.531,1.531,0,0,0,12.232.4l-.85-.1A37.441,37.441,0,0,0,6.562.049C6.131.018,5.726,0,5.35,0A8.34,8.34,0,0,0,3.669.148,3.154,3.154,0,0,0,1.423,1.5a2.1,2.1,0,0,0-.246,1.346A2.212,2.212,0,0,0,.356,4.675,2.317,2.317,0,0,0,.5,5.382Zm14.8-4.3a.521.521,0,0,1,.528.513V7.315a.521.521,0,0,1-.528.513H13.1a.521.521,0,0,1-.528-.513V1.6A.521.521,0,0,1,13.1,1.09h2.206ZM1.43,5.793A.462.462,0,0,0,1.5,5.22a1.433,1.433,0,0,1-.166-.587,1.4,1.4,0,0,1,.68-1.216.471.471,0,0,0,.166-.541,1.21,1.21,0,0,1,.1-.907,2.273,2.273,0,0,1,1.6-.893A9.8,9.8,0,0,1,6.508,1h.051a36.705,36.705,0,0,1,4.7.25h0l.365.042A1.449,1.449,0,0,0,11.6,1.6V7.315a1.449,1.449,0,0,0,.069.436,2.911,2.911,0,0,1-.673,1.206c-1.624,1.251-3.211,5.473-3.28,5.656a.433.433,0,0,0-.022.236,2.138,2.138,0,0,1-.047,1.019,1.314,1.314,0,0,1-1.02-.475,2.919,2.919,0,0,1,.043-2.556c.608-1.789.658-2.731.177-3.146a.806.806,0,0,0-.788-.137c-.221.049-.43.091-.629.123l-.047.011c-1.11.236-3.1.38-3.79-.232a.99.99,0,0,1-.123-1.283.461.461,0,0,0-.087-.612,1.32,1.32,0,0,1-.4-.819A1.29,1.29,0,0,1,1.43,5.793Z" transform="translate(0 0)"/></g></svg>