<svg xmlns="http://www.w3.org/2000/svg" viewBox="320 5563 100.004 99.926"><defs><style>.a{fill:#c49500;}.b{fill:#ffd757;}.c{fill:#e89330;}.d{fill:#ffbe35;}.e{fill:#ffdb8a;}.f{fill:#ffeab5;}.g{fill:#7f6100;}.h{fill:#fbc500;}.i{fill:#333;}</style></defs><g transform="translate(320 5563)"><path class="a" d="M396,146.4l14.688,39.1,6.367-4.258v-16.29C417.056,157.553,412.778,146.4,396,146.4Z" transform="translate(-318.653 -117.844)"/><path class="b" d="M393.227,164.975V185.5H374.3l4.238-39.1C390.238,146.4,393.227,157.553,393.227,164.975Z" transform="translate(-301.191 -117.844)"/><path class="b" d="M288.2,164.975v16.29l6.367,4.258h14.688V146.4C292.5,146.4,288.2,157.553,288.2,164.975Z" transform="translate(-231.909 -117.844)"/><path class="a" d="M379.1,200.5a4.1,4.1,0,0,0-4.1,4.1v7.559a4.1,4.1,0,0,0,8.2,0V204.6A4.089,4.089,0,0,0,379.1,200.5Z" transform="translate(-301.755 -161.377)"/><path class="c" d="M85.166,8.1,77.9,29l7.266,20.9a20.9,20.9,0,1,0,0-41.8Z" transform="translate(-62.684 -6.557)"/><path class="d" d="M8.2,29A20.9,20.9,0,0,0,29.1,49.9V8.1A20.9,20.9,0,0,0,8.2,29Z" transform="translate(-6.598 -6.557)"/><path class="e" d="M115.1,40.8V69.825a14.512,14.512,0,1,0,0-29.025Z" transform="translate(-92.619 -32.87)"/><path class="f" d="M55.312,40.8a14.512,14.512,0,1,0,0,29.025c5.489,0,9.942-6.485,9.942-14.512S60.8,40.8,55.312,40.8Z" transform="translate(-32.831 -32.87)"/><path class="g" d="M410.688,324.8,396,359.665c16.759,0,21.056-11.153,21.056-18.575V324.8Z" transform="translate(-318.653 -261.399)"/><path class="h" d="M288.2,324.8v16.29c0,7.422,4.3,18.575,21.056,18.575,11.68,0,14.688-11.153,14.688-18.575V324.8Z" transform="translate(-231.909 -261.399)"/><path class="i" d="M302.657,138.5C285.938,138.5,280,149.36,280,158.677v32.56c0,9.3,5.938,20.177,22.657,20.177s22.657-10.86,22.657-20.177v-32.56C325.314,149.36,319.377,138.5,302.657,138.5Zm19.474,52.737a17.365,17.365,0,0,1-3.867,11.036c-3.359,3.945-8.614,5.938-15.606,5.938s-12.247-1.992-15.606-5.938a17.485,17.485,0,0,1-3.867-11.036v-32.56a17.366,17.366,0,0,1,3.867-11.036c3.36-3.945,8.614-5.938,15.606-5.938s12.247,1.992,15.606,5.938a17.485,17.485,0,0,1,3.867,11.036v32.56Z" transform="translate(-225.31 -111.487)"/><path class="i" d="M63.636,3.4A12.141,12.141,0,0,1,75.765,15.533v6.895a1.6,1.6,0,0,0,3.2,0V15.513a15.313,15.313,0,0,0-30.626-.078V57.878a12.13,12.13,0,0,1-24.259-.1V45.1a22.355,22.355,0,1,0-3.184.02V57.8a15.313,15.313,0,0,0,30.626.078V15.435A12.066,12.066,0,0,1,63.636,3.4ZM3.184,22.7A19.3,19.3,0,1,1,22.481,42,19.314,19.314,0,0,1,3.184,22.7Z" transform="translate(0 -0.2)"/><path class="i" d="M96.995,79.9A1.2,1.2,0,0,1,95.8,78.706a1.6,1.6,0,0,0-3.2,0,4.383,4.383,0,0,0,2.793,4.082v.684a1.609,1.609,0,0,0,1.6,1.6h0a1.609,1.609,0,0,0,1.6-1.6v-.684a4.384,4.384,0,0,0,2.793-4.082c0-3.067-2.5-4.258-3.711-4.8-1.465-.684-1.875-1.113-1.875-1.934a1.191,1.191,0,1,1,2.383,0,1.6,1.6,0,1,0,3.2,0A4.383,4.383,0,0,0,98.6,67.885V67.2a1.609,1.609,0,0,0-1.6-1.6h0a1.609,1.609,0,0,0-1.6,1.6v.684A4.383,4.383,0,0,0,92.6,71.967c0,3.067,2.5,4.258,3.711,4.8,1.465.684,1.875,1.113,1.875,1.934A1.2,1.2,0,0,1,96.995,79.9Z" transform="translate(-74.513 -52.826)"/><path class="i" d="M66.355,49.014a16.106,16.106,0,0,0-31.818-3.535,1.6,1.6,0,0,0,3.125.7,12.93,12.93,0,1,1,0,5.7,1.6,1.6,0,1,0-3.125.7,16.1,16.1,0,0,0,31.818-3.574Z" transform="translate(-27.759 -26.513)"/><path class="i" d="M330.491,199.578v-5.547a5.713,5.713,0,0,0,4.1-5.469V181a5.7,5.7,0,0,0-4.1-5.469V172.7a1.6,1.6,0,0,0-3.2,0v2.832a5.713,5.713,0,0,0-4.1,5.469v7.559a5.7,5.7,0,0,0,4.1,5.469v5.547H314.2a1.6,1.6,0,0,0,0,3.2h29.357a1.6,1.6,0,0,0,0-3.2Zm-4.1-11v-7.559a2.52,2.52,0,0,1,5.039,0v7.559a2.52,2.52,0,0,1-5.039,0Z" transform="translate(-251.543 -137.72)"/></g></svg>