<svg xmlns="http://www.w3.org/2000/svg" viewBox="320 5708.339 100.004 98.325"><defs><style>.a{fill:#d9d9d9;}.b{fill:#dbdbdb;}.c{fill:#bdbdbd;}.d{fill:#fbc500;}.e{fill:#e5a413;}.f{fill:#87ced9;}.g{fill:#6cbbc7;}.h{fill:#3e8cc7;}.i{fill:#de4c3c;}.j{fill:#126099;}.k{fill:#d1d1d1;}</style></defs><g transform="translate(320 5708.339)"><path class="a" d="M86.8,89.05V4.3h44.064l16.954,16.954v67.8Z" transform="translate(-69.846 -4.3)"/><path class="b" d="M329.354,21.254H312.4V4.3Z" transform="translate(-251.382 -4.3)"/><g transform="translate(23.711 5.098)"><rect class="c" width="32.208" height="3.399" transform="translate(0.021)"/><rect class="c" width="3.399" height="8.477" transform="translate(0 10.021) rotate(-89.049)"/><rect class="c" width="20.333" height="3.399" transform="translate(11.877 6.778)"/><path class="c" d="M265.032,125.8H243v3.4h20.333v6.778H243v3.4h20.333v6.778H243v3.4h20.333v6.758H243v3.4h20.333v6.778H243v3.4h20.333v6.778H243v3.4h22.032a1.7,1.7,0,0,0,1.7-1.7V127.5A1.7,1.7,0,0,0,265.032,125.8Z" transform="translate(-219.248 -107.166)"/></g><rect class="d" width="54.241" height="77.972" transform="translate(0 20.352)"/><path class="e" d="M38.5,186.472H85.221V108.5h-8.34Z" transform="translate(-30.98 -88.148)"/><rect class="f" width="40.685" height="13.555" transform="translate(6.778 28.829)"/><path class="d" d="M440.678,65.1v59.319l-3.379,3.4-3.4-3.4V65.1Z" transform="translate(-349.15 -53.224)"/><path class="g" d="M85.8,165.455h30.7V151.9h-9.278Z" transform="translate(-69.041 -123.071)"/><g transform="translate(18.653 33.908)"><rect class="h" width="3.399" height="3.399"/><rect class="h" width="3.399" height="3.399" transform="translate(6.778)"/><rect class="h" width="3.399" height="3.399" transform="translate(13.555)"/><rect class="h" width="3.399" height="3.399" transform="translate(20.333)"/></g><g transform="translate(8.477 52.561)"><rect class="h" width="6.778" height="6.778"/><rect class="h" width="6.778" height="6.778" transform="translate(10.176)"/><rect class="h" width="6.778" height="6.778" transform="translate(20.333)"/><rect class="h" width="6.778" height="6.778" transform="translate(30.509)"/><rect class="h" width="6.778" height="6.778" transform="translate(0 10.157)"/><rect class="h" width="6.778" height="6.778" transform="translate(10.176 10.157)"/><rect class="h" width="6.778" height="6.778" transform="translate(20.333 10.157)"/><rect class="h" width="6.778" height="6.778" transform="translate(30.509 10.157)"/><rect class="h" width="6.778" height="6.778" transform="translate(0 20.333)"/><rect class="h" width="6.778" height="6.778" transform="translate(10.176 20.333)"/><rect class="h" width="6.778" height="6.778" transform="translate(20.333 20.333)"/></g><rect class="i" width="6.778" height="16.954" transform="translate(38.986 72.894)"/><g transform="translate(8.477 83.07)"><rect class="h" width="6.778" height="6.778"/><rect class="h" width="6.778" height="6.778" transform="translate(10.176)"/><rect class="h" width="6.778" height="6.778" transform="translate(20.333)"/></g><path class="e" d="M451.3,65.1v62.718l3.379-3.4V65.1Z" transform="translate(-363.152 -53.224)"/><g transform="translate(84.75 16.954)"><path class="j" d="M449.155,116.531h-3.4V94.5H433.9V91.1h13.555a1.7,1.7,0,0,1,1.7,1.7Z" transform="translate(-433.9 -91.1)"/><rect class="j" width="6.778" height="3.399" transform="translate(0 20.352)"/></g><rect class="k" width="16.954" height="3.399" transform="translate(61.018 16.954)"/></g></svg>