<svg xmlns="http://www.w3.org/2000/svg" viewBox="320 5894.348 100.004 99.789"><defs><style>.a{fill:#e5a413;}.b{fill:#77442b;}.c{fill:#eaead6;}.d{fill:#bfbda3;}.e{fill:#6d8c60;}.f{fill:#fbc500;}.g{fill:#91553d;}.h{fill:#996405;}.i{fill:#c1840c;}.j{fill:#e4c05c;}</style></defs><g transform="translate(320 5894.348)"><g transform="translate(0 10.13)"><path class="a" d="M41.5,5.9,64.777,29.177l-.862.862H69.95V5.9Z" transform="translate(30.055 -5.9)"/><path class="a" d="M41.726,5.9H12.069a12.069,12.069,0,1,0,0,24.139h7.242l-.862-.862Z" transform="translate(0 -5.9)"/></g><g transform="translate(3.276 14.414)"><path class="b" d="M18.673,8.411c-1.035,0-2.241.172-3.448.172A1.728,1.728,0,0,0,13.5,10.308a1.854,1.854,0,0,0,1.724,1.724h0c1.207,0,2.414-.172,3.448-.172a1.557,1.557,0,0,0,1.552-1.9C20.052,8.928,19.707,8.239,18.673,8.411Z" transform="translate(6.501 -8.385)"/><path class="b" d="M12.711,8.6a21.983,21.983,0,0,0-3.448.172,1.557,1.557,0,0,0-1.552,1.9,1.7,1.7,0,0,0,1.724,1.552h.172c1.035,0,2.241-.172,3.448-.172a1.728,1.728,0,0,0,1.724-1.724C14.78,9.462,13.573,8.6,12.711,8.6Z" transform="translate(2.289 -8.229)"/><path class="b" d="M6.211,9.345a11.381,11.381,0,0,0-3.793,2.069,1.667,1.667,0,0,0,0,2.414,1.863,1.863,0,0,0,1.207.517,1.863,1.863,0,0,0,1.207-.517,5.451,5.451,0,0,1,2.241-1.207A1.584,1.584,0,0,0,8.28,10.552,1.584,1.584,0,0,0,6.211,9.345Z" transform="translate(-1.9 -7.766)"/><path class="b" d="M52.173,8.9H48.724A1.629,1.629,0,0,0,47,10.624a1.629,1.629,0,0,0,1.724,1.724h3.448A1.629,1.629,0,0,0,53.9,10.624,1.629,1.629,0,0,0,52.173,8.9Z" transform="translate(30.762 -8.011)"/><path class="b" d="M58.173,8.9H54.724A1.629,1.629,0,0,0,53,10.624a1.629,1.629,0,0,0,1.724,1.724h3.448A1.629,1.629,0,0,0,59.9,10.624,1.629,1.629,0,0,0,58.173,8.9Z" transform="translate(35.107 -8.011)"/></g><path class="c" d="M84.424,34.221,50.284.254c-.172-.172-.172-.172-.345,0L15.8,34.221Z" transform="translate(11.443 0.047)"/><path class="d" d="M20.1,34.294,49.412,4.982,44.584.154c-.172-.172-.172-.172-.345,0L10.1,34.294Z" transform="translate(7.315 -0.025)"/><path class="e" d="M64.319,29.335l.517-.517L44.491,8.3h-.172L23.8,28.818l.517.517Z" transform="translate(17.236 5.968)"/><g transform="translate(0 22.199)"><path class="f" d="M0,12.9V79.8A10.744,10.744,0,0,0,10.69,90.49H100V24.969H12.069A12,12,0,0,1,0,12.9Z" transform="translate(0 -12.9)"/></g><path class="g" d="M88.612,27.547H85.164a1.724,1.724,0,1,1,0-3.448h3.448a1.724,1.724,0,1,1,0,3.448Zm-10.345,0H74.819a1.724,1.724,0,1,1,0-3.448h3.448a1.724,1.724,0,1,1,0,3.448Zm-10.345,0H64.473a1.724,1.724,0,1,1,0-3.448h3.448a1.724,1.724,0,1,1,0,3.448Zm-10.345,0H54.128a1.724,1.724,0,1,1,0-3.448h3.448a1.724,1.724,0,1,1,0,3.448Zm-10.345,0H43.783a1.724,1.724,0,1,1,0-3.448h3.448a1.724,1.724,0,1,1,0,3.448Zm-10.345,0H33.438a1.724,1.724,0,1,1,0-3.448h3.448a1.724,1.724,0,1,1,0,3.448Zm-10.345,0H23.092a1.724,1.724,0,0,1,0-3.448h3.448a1.724,1.724,0,1,1,0,3.448Zm-10.345,0H12.747a1.724,1.724,0,1,1,0-3.448H16.2a1.724,1.724,0,0,1,0,3.448ZM6.023,26.512a1.037,1.037,0,0,1-.69-.172,13.116,13.116,0,0,1-3.276-2.069,1.676,1.676,0,0,1-.172-2.414A1.676,1.676,0,0,1,4.3,21.684a7.232,7.232,0,0,0,2.414,1.552,1.711,1.711,0,0,1,.862,2.241A1.982,1.982,0,0,1,6.023,26.512Z" transform="translate(1.047 15.343)"/><path class="g" d="M88.612,57.547H85.164a1.724,1.724,0,1,1,0-3.448h3.448a1.724,1.724,0,1,1,0,3.448Zm-10.345,0H74.819a1.724,1.724,0,1,1,0-3.448h3.448a1.724,1.724,0,1,1,0,3.448Zm-10.345,0H64.473a1.724,1.724,0,1,1,0-3.448h3.448a1.724,1.724,0,1,1,0,3.448Zm-10.345,0H54.128a1.724,1.724,0,1,1,0-3.448h3.448a1.724,1.724,0,1,1,0,3.448Zm-10.345,0H43.783a1.724,1.724,0,1,1,0-3.448h3.448a1.724,1.724,0,1,1,0,3.448Zm-10.345,0H33.438a1.724,1.724,0,1,1,0-3.448h3.448a1.724,1.724,0,1,1,0,3.448Zm-10.345,0H23.092a1.724,1.724,0,1,1,0-3.448h3.448a1.724,1.724,0,1,1,0,3.448Zm-10.345,0H12.747a1.724,1.724,0,1,1,0-3.448H16.2a1.724,1.724,0,1,1,0,3.448ZM6.023,56.512a1.037,1.037,0,0,1-.69-.172,13.116,13.116,0,0,1-3.276-2.069,1.676,1.676,0,0,1-.172-2.414A1.676,1.676,0,0,1,4.3,51.684a7.232,7.232,0,0,0,2.414,1.552,1.711,1.711,0,0,1,.862,2.241A1.982,1.982,0,0,1,6.023,56.512Z" transform="translate(1.047 37.069)"/><path class="h" d="M71.036,53.791H50.345A10.376,10.376,0,0,1,40,43.445h0A10.376,10.376,0,0,1,50.345,33.1H71.036Z" transform="translate(28.968 23.928)"/><path class="i" d="M71.036,52.591H50.345A10.376,10.376,0,0,1,40,42.245h0A10.376,10.376,0,0,1,50.345,31.9H71.036Z" transform="translate(28.968 23.059)"/><circle class="j" cx="5.173" cy="5.173" r="5.173" transform="translate(75.865 60.132)"/></g></svg>